<svg width="300" height="300" viewBox="0 0 300 300" fill="none" xmlns="http://www.w3.org/2000/svg">
<g clip-path="url(#clip0_635_10)">
<mask id="mask0_635_10" style="mask-type:luminance" maskUnits="userSpaceOnUse" x="0" y="0" width="300" height="300">
<path d="M300 150C300 67.1573 232.843 0 150 0C67.1573 0 0 67.1573 0 150C0 232.843 67.1573 300 150 300C232.843 300 300 232.843 300 150Z" fill="white"/>
</mask>
<g mask="url(#mask0_635_10)">
<path d="M300 150C300 67.1573 232.843 0 150 0C67.1573 0 0 67.1573 0 150C0 232.843 67.1573 300 150 300C232.843 300 300 232.843 300 150Z" fill="#0D3D49"/>
<path d="M94.2707 38.7988C94.9025 41.8399 96.6271 55.1707 97.946 68.5045L99.7351 83.934C100.323 89.0063 104.638 92.8207 109.745 92.7819L149.057 92.4828C186.39 92.1988 197.342 91.6804 197.331 90.23C197.325 89.3598 198.659 78.0364 200.185 65.261C201.711 52.4857 203.035 39.8569 203.015 37.2463C202.996 34.6831 200.902 32.621 198.339 32.6405L147.996 33.0235L98.5151 33.3999C95.696 33.4214 93.6261 36.0543 94.2707 38.7988Z" fill="#40E0D0"/>
<path d="M104.214 118.932L104.268 126.038L84.5903 126.623C64.913 127.208 64.7102 127.209 64.7377 130.835C64.753 132.838 66.3887 134.449 68.3912 134.434L148.966 133.821L229.06 133.211C231.42 133.193 233.412 131.451 233.744 129.114C234.048 127.054 232.443 125.208 230.36 125.224L213.831 125.35L193.136 125.507L194.501 118.245C195.208 114.482 192.305 111.009 188.477 111.038L150.012 111.331L111.41 111.625C107.405 111.655 104.183 114.927 104.214 118.932Z" fill="#40E0D0"/>
<path d="M85.3647 148.373C87.408 150.244 93.1232 154.696 97.8173 158.287C102.197 161.437 102.14 167.973 97.707 171.048L93.4729 173.984C78.536 184.251 75.5235 188.335 78.6111 194.113C83.1376 202.346 97.1537 204.415 105.83 197.967C110.876 194.448 110.872 194.013 110.687 169.647L110.575 154.991C110.533 149.468 106.022 145.025 100.5 145.067L95.8909 145.102L86.4897 145.174C84.801 145.187 84.0557 147.307 85.3647 148.373Z" fill="#40E0D0"/>
<path d="M173.15 165.401C172.7 186.29 172.7 186.29 166.454 191.995C157.587 200.039 149.086 202.715 131.84 202.846L121.215 202.927C118.657 202.946 116.204 203.945 114.36 205.719L109.174 210.706C91.8497 227.227 82.8696 247.021 83.0274 267.761C83.1399 282.555 86.6762 293.986 95.2981 307.119C107.817 325.735 125.98 339.375 158.149 353.925C169.144 358.918 161.555 364.356 166.454 368.235C177.07 376.711 207.133 391.698 209.029 400.822C211.145 412.264 211.553 412.551 220.277 412.485C224.648 412.451 228.163 408.882 228.13 404.512L228 387.479L227.887 372.592C227.855 368.317 232.619 365.749 236.172 368.126C247.595 376.016 258.471 392.033 259.977 403.335L260.008 403.545C260.726 408.489 264.99 412.144 269.986 412.106C274.718 412.07 128 278.51 95.2981 307.119L278.986 368.235C279.632 319.786 279.824 318.334 292.741 309.388C302.631 302.496 308.91 301.143 338.526 300.047L356.427 299.334C360.309 299.179 362.453 294.761 360.173 291.615C357.302 287.576 351.779 281.671 347.898 278.51C344.018 275.203 340.75 272.182 340.746 271.747C340.743 271.312 351.696 270.794 365.087 270.692C378.478 270.59 389.432 270.217 389.428 269.781C389.414 267.896 380.194 256.218 373.858 250.174C369.975 246.433 366.906 243.12 366.902 242.54C366.898 242.105 377.851 241.586 391.242 241.484L404.616 241.383C409.238 241.348 411.909 236.123 409.23 232.355C399.798 219.373 379.605 205.602 360.486 199.366C327.329 188.305 298.112 188.527 265.127 200.091C230.521 212.103 204.568 241.164 204.771 267.85C204.8 271.695 201.707 274.836 197.862 274.865L197.723 274.866C193.801 274.896 190.597 271.741 190.567 267.819L190.125 209.655L189.689 152.302C189.655 147.932 186.086 144.416 181.716 144.45C177.297 144.483 173.694 148.002 173.556 152.419L173.15 165.401Z" fill="#40E0D0"/>
<path d="M120.734 156.662C120.782 163.043 131.585 169.488 142.136 169.408C152.686 169.328 163.39 162.719 163.341 156.338C163.318 153.292 154.807 154.807 150.777 158.464C148.561 160.511 144.718 162.136 142.08 162.156C139.037 162.179 135.78 160.754 133.734 158.594C130.46 154.993 120.71 153.471 120.734 156.662Z" fill="#40E0D0"/>
</g>
</g>
<defs>
<clipPath id="clip0_635_10">
<rect width="300" height="300" rx="150" fill="white"/>
</clipPath>
</defs>
</svg>
