<svg width="758" height="786" viewBox="0 0 758 786" fill="none" xmlns="http://www.w3.org/2000/svg">
<g clip-path="url(#clip0_643_2)">
<path d="M398.707 11.2145C400.099 17.9333 403.898 47.3854 406.804 76.8444L413.023 130.632L519.375 129.823C601.597 129.197 625.721 128.053 625.696 124.848C625.682 122.926 628.619 97.9086 631.98 69.6838C635.34 41.4589 638.256 13.5579 638.212 7.79023L638.134 -2.46346L517.035 -1.5422L395.936 -0.620939L398.707 11.2145Z" fill="#0D3D49"/>
<path d="M420.608 188.254L420.728 203.955L377.39 205.247C334.052 206.538 333.605 206.541 333.666 214.552L333.727 222.562L519.174 221.152L704.621 219.741L705.893 210.759L707.168 202.097L662.035 202.44L616.455 202.787L619.461 186.742L622.467 170.696L521.477 171.465L420.487 172.233L420.608 188.254Z" fill="#0D3D49"/>
<path d="M379.092 253.299C383.593 257.43 396.18 267.268 406.519 275.201L426.291 289.471L396.951 309.882C364.054 332.563 357.42 341.586 364.22 354.353C374.19 372.542 405.06 377.114 424.168 362.869C435.281 355.094 435.273 354.132 434.864 300.301L434.449 245.828L402.275 246.073L370.548 246.314L379.092 253.299Z" fill="#0D3D49"/>
<path d="M572.439 290.923C571.449 337.074 571.449 337.074 557.692 349.676C538.164 367.45 519.44 373.36 481.457 373.649L449.283 373.894L431.538 391.012C393.383 427.513 373.606 471.244 373.954 517.065C374.203 549.749 381.992 575.005 400.982 604.021C428.555 645.149 468.557 675.287 539.41 707.434C563.625 718.465 592.349 734.589 603.139 743.159C626.52 761.888 647.297 790.89 651.472 811.046C656.134 836.326 657.032 836.96 676.247 836.814L693.675 836.682L693.255 781.568L692.836 726.454L711.252 738.812C736.411 756.245 760.365 791.632 763.683 816.602L766.513 836.127L785.728 835.981L804.496 835.839L805.547 739.056C806.967 632.016 807.39 628.808 835.84 609.045C857.622 593.818 871.452 590.829 936.679 588.41L996.097 586.035L984.354 569.782C978.03 560.857 965.865 547.812 957.321 540.827C948.775 533.521 941.574 526.847 941.566 525.886C941.559 524.924 965.682 523.779 995.175 523.555C1024.67 523.331 1048.79 522.506 1048.79 521.545C1048.75 517.379 1028.45 491.578 1014.49 478.225C1005.94 469.959 999.18 462.64 999.171 461.358C999.163 460.397 1023.29 459.252 1052.78 459.028L1106.4 458.62L1092.4 438.859C1071.62 410.176 1027.15 379.752 985.038 365.973C912.01 341.533 847.662 342.023 775.014 367.57C698.799 394.106 641.639 458.31 642.087 517.269L642.204 532.649L626.564 532.768L610.924 532.887L609.827 388.695L608.73 244.502L591.303 244.635L573.875 244.767L572.439 290.923Z" fill="#0D3D49"/>
<path d="M456.99 271.614C457.097 285.713 480.891 299.952 504.127 299.775C527.364 299.598 550.938 284.999 550.83 270.9C550.779 264.171 532.035 267.518 523.159 275.597C518.278 280.12 509.814 283.71 504.005 283.754C497.302 283.805 490.128 280.655 485.623 275.883C478.412 267.926 456.936 264.565 456.99 271.614Z" fill="#0D3D49"/>
</g>
<defs>
<clipPath id="clip0_643_2">
<rect width="758" height="786" fill="white"/>
</clipPath>
</defs>
</svg>
