<svg width="192" height="192" viewBox="0 0 192 192" fill="none" xmlns="http://www.w3.org/2000/svg">
<g clip-path="url(#clip0_651_2)">
<mask id="mask0_651_2" style="mask-type:luminance" maskUnits="userSpaceOnUse" x="0" y="0" width="192" height="192">
<path d="M192 96C192 42.9807 149.019 0 96 0C42.9807 0 0 42.9807 0 96C0 149.019 42.9807 192 96 192C149.019 192 192 149.019 192 96Z" fill="white"/>
</mask>
<g mask="url(#mask0_651_2)">
<path d="M192 96C192 42.9807 149.019 0 96 0C42.9807 0 0 42.9807 0 96C0 149.019 42.9807 192 96 192C149.019 192 192 149.019 192 96Z" fill="#0D3D49"/>
<path d="M60.3335 24.8312C60.7379 26.7775 61.8416 35.3092 62.6857 43.8429L63.8308 53.7178C64.207 56.964 66.9686 59.4052 70.2371 59.3804L95.3968 59.189C119.29 59.0072 126.299 58.6755 126.292 57.7472C126.288 57.1903 127.142 49.9433 128.119 41.767C129.095 33.5908 129.943 25.5084 129.93 23.8376C129.918 22.1972 128.578 20.8774 126.937 20.8899L94.7177 21.135L63.05 21.3759C61.2457 21.3897 59.921 23.0748 60.3335 24.8312Z" fill="#40E0D0"/>
<path d="M66.6971 76.1165L66.7317 80.6643L54.1382 81.0387C41.5447 81.4131 41.4149 81.4138 41.4325 83.7344C41.4423 85.0163 42.4891 86.0474 43.7707 86.0378L95.3384 85.6454L146.599 85.255C148.109 85.2435 149.384 84.1286 149.596 82.633C149.791 81.3146 148.764 80.1331 147.431 80.1434L136.852 80.224L123.607 80.3245L124.481 75.6768C124.933 73.2685 123.075 71.0458 120.625 71.0643L96.0079 71.2518L71.3026 71.44C68.7394 71.4592 66.6773 73.5533 66.6971 76.1165Z" fill="#40E0D0"/>
<path d="M54.6342 94.9587C55.9419 96.1562 59.5996 99.0055 62.6038 101.304C65.4068 103.32 65.3703 107.503 62.5333 109.471L59.8234 111.35C50.2638 117.921 48.3358 120.534 50.3119 124.232C53.2088 129.501 62.1791 130.826 67.7319 126.699C70.9614 124.447 70.9588 124.168 70.8404 108.574L70.7687 99.1943C70.7418 95.6595 67.8548 92.816 64.3207 92.8429L61.371 92.8653L55.3542 92.9114C54.2734 92.9197 53.7964 94.2765 54.6342 94.9587Z" fill="#40E0D0"/>
<path d="M110.816 105.857C110.528 119.226 110.528 119.226 106.531 122.877C100.856 128.025 95.4152 129.738 84.3778 129.821L77.5778 129.873C75.9407 129.885 74.3707 130.525 73.1906 131.66L69.8715 134.852C58.7843 145.425 53.037 158.093 53.138 171.367C53.21 180.835 55.4733 188.151 60.9913 196.556C69.0031 208.47 80.6274 217.2 101.216 226.512C108.252 229.708 103.395 233.188 106.531 235.67C113.325 241.095 132.565 250.687 133.779 256.526C135.133 263.849 135.394 264.033 140.977 263.99C143.775 263.969 146.025 261.685 146.003 258.888L145.92 247.987L145.848 238.459C145.827 235.723 148.876 234.079 151.15 235.601C158.461 240.65 165.422 250.901 166.385 258.134L166.405 258.269C166.865 261.433 169.594 263.772 172.791 263.748C175.82 263.725 81.9205 178.246 60.9913 196.556L178.551 235.67C178.965 204.663 179.088 203.734 187.354 198.008C193.684 193.597 197.703 192.732 216.657 192.03L228.113 191.574C230.598 191.475 231.97 188.647 230.511 186.634C228.673 184.049 225.139 180.269 222.656 178.246C220.172 176.13 218.08 174.197 218.078 173.918C218.076 173.64 225.086 173.308 233.656 173.243C242.226 173.178 249.237 172.939 249.234 172.66C249.225 171.453 243.324 163.98 239.269 160.111C236.784 157.717 234.82 155.597 234.817 155.226C234.815 154.947 241.825 154.615 250.395 154.55L258.954 154.485C261.913 154.463 263.623 151.119 261.908 148.707C255.872 140.399 242.948 131.585 230.711 127.594C209.491 120.515 190.792 120.657 169.681 128.058C147.534 135.746 130.924 154.345 131.054 171.424C131.072 173.885 129.093 175.895 126.632 175.914L126.543 175.914C124.033 175.933 121.982 173.914 121.963 171.404L121.68 134.179L121.401 97.4733C121.379 94.6765 119.095 92.4263 116.298 92.448C113.47 92.4692 111.164 94.7213 111.076 97.5482L110.816 105.857Z" fill="#40E0D0"/>
<path d="M77.2696 100.264C77.3003 104.348 84.2142 108.472 90.9668 108.421C97.7188 108.37 104.569 104.14 104.538 100.056C104.523 98.1069 99.0763 99.0765 96.4971 101.417C95.0788 102.727 92.6193 103.767 90.931 103.78C88.9835 103.795 86.899 102.883 85.5896 101.5C83.4942 99.1955 77.2542 98.2214 77.2696 100.264Z" fill="#40E0D0"/>
</g>
</g>
<defs>
<clipPath id="clip0_651_2">
<rect width="192" height="192" rx="96" fill="white"/>
</clipPath>
</defs>
</svg>
